<svg width="20" height="20" viewBox="0 0 20 20" fill="none" xmlns="http://www.w3.org/2000/svg">
<path fill-rule="evenodd" clip-rule="evenodd" d="M1.66684 12.336V17.7085C1.66684 18.0535 1.94684 18.3335 2.29184 18.3335H3.63684C3.78485 18.3335 3.92807 18.281 4.041 18.1853C4.15393 18.0897 4.22923 17.957 4.25351 17.811L4.58351 15.8335H15.4168L15.746 17.811C15.7703 17.957 15.8456 18.0897 15.9585 18.1853C16.0714 18.281 16.2147 18.3335 16.3627 18.3335H17.7085C17.8743 18.3335 18.0332 18.2676 18.1504 18.1504C18.2677 18.0332 18.3335 17.8743 18.3335 17.7085V12.336C18.3336 11.3563 18.0436 10.3986 17.5002 9.5835L16.8502 8.6085C16.7922 8.52169 16.7425 8.42962 16.7018 8.3335H17.5302C17.6463 8.33349 17.7601 8.30113 17.8589 8.24005C17.9577 8.17896 18.0375 8.09157 18.0893 7.98766L18.2977 7.571C18.3452 7.47577 18.3676 7.36999 18.3629 7.26366C18.3581 7.15734 18.3262 7.054 18.2703 6.96345C18.2143 6.87289 18.1362 6.79812 18.0433 6.74621C17.9504 6.6943 17.8458 6.66697 17.7393 6.66683H16.3335L16.0752 5.3785C15.9966 4.98613 15.8066 4.62469 15.5281 4.33741C15.2495 4.05012 14.8941 3.84914 14.5043 3.7585C13.286 3.47516 11.7843 3.3335 10.0002 3.3335C8.21517 3.3335 6.71434 3.47516 5.49601 3.7585C5.10609 3.849 4.7505 4.04992 4.47178 4.33721C4.19306 4.62451 4.003 4.98602 3.92434 5.3785L3.66601 6.66683H2.26184C2.15541 6.66697 2.05078 6.6943 1.95787 6.74621C1.86495 6.79812 1.78683 6.87289 1.73091 6.96345C1.67499 7.054 1.64313 7.15734 1.63833 7.26366C1.63353 7.36999 1.65597 7.47577 1.70351 7.571L1.91184 7.98766C1.96365 8.09144 2.04331 8.17875 2.14192 8.23983C2.24053 8.3009 2.35418 8.33334 2.47017 8.3335H3.29934C3.25862 8.42961 3.20896 8.52168 3.15101 8.6085L2.50017 9.5835C1.95684 10.3985 1.66684 11.356 1.66684 12.336ZM14.9677 8.33683C15.0251 8.62505 15.1204 8.90442 15.251 9.16766H4.74934C4.88017 8.90516 4.97517 8.626 5.03267 8.33683L5.55934 5.706C5.57489 5.62734 5.6128 5.55484 5.66852 5.49719C5.72425 5.43954 5.79542 5.3992 5.87351 5.381C6.95517 5.131 8.33351 5.00016 10.0002 5.00016C11.6668 5.00016 13.0452 5.13016 14.1268 5.38183C14.205 5.39983 14.2762 5.43999 14.3321 5.49749C14.388 5.55499 14.4261 5.62738 14.4418 5.706L14.9677 8.33683ZM4.58351 13.3335C4.91503 13.3335 5.23297 13.2018 5.46739 12.9674C5.70181 12.733 5.83351 12.415 5.83351 12.0835C5.83351 11.752 5.70181 11.434 5.46739 11.1996C5.23297 10.9652 4.91503 10.8335 4.58351 10.8335C4.25199 10.8335 3.93404 10.9652 3.69962 11.1996C3.4652 11.434 3.33351 11.752 3.33351 12.0835C3.33351 12.415 3.4652 12.733 3.69962 12.9674C3.93404 13.2018 4.25199 13.3335 4.58351 13.3335ZM16.6668 12.0835C16.6668 12.415 16.5351 12.733 16.3007 12.9674C16.0663 13.2018 15.7484 13.3335 15.4168 13.3335C15.0853 13.3335 14.7674 13.2018 14.533 12.9674C14.2985 12.733 14.1668 12.415 14.1668 12.0835C14.1668 11.752 14.2985 11.434 14.533 11.1996C14.7674 10.9652 15.0853 10.8335 15.4168 10.8335C15.7484 10.8335 16.0663 10.9652 16.3007 11.1996C16.5351 11.434 16.6668 11.752 16.6668 12.0835Z" fill="#717171"/>
</svg>
