<svg width="20" height="20" viewBox="0 0 20 20" fill="none" xmlns="http://www.w3.org/2000/svg">
<g clip-path="url(#clip0_556_384)">
<path d="M7.73362 4.48304C7.56338 4.48304 7.42578 4.3289 7.42578 4.1382V2.75891C7.42578 2.5682 7.56338 2.41406 7.73362 2.41406C7.90387 2.41406 8.04147 2.5682 8.04147 2.75891V4.1382C8.04147 4.3289 7.90387 4.48304 7.73362 4.48304Z" fill="#717171"/>
<path d="M12.0432 4.48304C11.873 4.48304 11.7354 4.3289 11.7354 4.1382V2.75891C11.7354 2.5682 11.873 2.41406 12.0432 2.41406C12.2134 2.41406 12.351 2.5682 12.351 2.75891V4.1382C12.351 4.3289 12.2134 4.48304 12.0432 4.48304Z" fill="#717171"/>
<path d="M15.9042 11.4014L14.8133 6.20722C14.1782 3.92273 9.88801 4.13824 9.88801 4.13824C9.88801 4.13824 5.59749 3.92273 4.96277 6.20722L3.87151 11.4014C3.76686 11.9006 3.7459 12.4158 3.81732 12.9224C4.00077 14.2231 4.55763 16.552 6.19407 16.552C6.19407 16.552 7.88714 15.8624 9.88801 15.8624C11.8889 15.8624 13.582 16.552 13.582 16.552C15.2181 16.552 15.7749 14.2231 15.9584 12.9224C16.0298 12.4158 16.0092 11.9007 15.9042 11.4014Z" fill="#717171"/>
<path d="M14.0815 12.9273C13.9362 13.7376 13.2245 14.2583 12.5008 14.0963C11.7694 13.9325 10.8604 13.7928 9.88768 13.7928C8.91463 13.7928 8.00561 13.9325 7.27422 14.0963C6.55081 14.2583 5.83913 13.7376 5.69382 12.927C5.67506 12.8232 5.65748 12.7139 5.64148 12.599C5.60825 12.3642 5.61776 12.1204 5.66948 11.8749L6.57142 7.57976C6.68594 7.03527 7.05565 6.60492 7.53861 6.46254C8.0305 6.31738 8.72374 6.20117 9.5949 6.20117C9.71618 6.20117 9.79283 6.20395 9.80883 6.20461L9.88764 6.2084L9.97015 6.20461C9.98214 6.20391 10.0588 6.20117 10.1801 6.20117C11.0512 6.20117 11.7445 6.31738 12.2367 6.46254C12.7194 6.60496 13.0893 7.03531 13.2035 7.57976L14.1058 11.8749C14.1575 12.1204 14.1668 12.3642 14.1338 12.6001C14.1176 12.7146 14.1 12.8235 14.0815 12.9273Z" fill="#F8F7FF"/>
<path d="M4.41903 15.1318L4.34699 15.1722C4.34699 15.1722 2.5 15.0573 2.5 16.8963C2.5 16.8963 2.65392 19.9998 6.19394 19.9998V16.5515C5.34281 16.5515 4.78532 15.9198 4.41903 15.1318Z" fill="#717171"/>
<path d="M15.3569 15.1318L15.429 15.1722C15.429 15.1722 17.276 15.0573 17.276 16.8963C17.276 16.8963 17.1221 19.9998 13.582 19.9998V16.5515C14.4332 16.5515 14.9906 15.9198 15.3569 15.1318Z" fill="#717171"/>
<path d="M6.19434 16.552V20.0002H13.5822V16.552C13.5822 16.552 11.8892 15.8623 9.88828 15.8623C7.8874 15.8623 6.19434 16.552 6.19434 16.552Z" fill="#717171"/>
<path d="M13.2168 2.75863H6.55904C6.08469 2.75863 5.75624 2.22761 5.92275 1.73L6.33646 0.49414C6.43591 0.196914 6.68957 0 6.97275 0H12.803C13.0862 0 13.3399 0.196914 13.4393 0.49414L13.853 1.73C14.0199 2.22757 13.6914 2.75863 13.2168 2.75863Z" fill="#717171"/>
<path d="M12.3508 12.4141C12.1806 12.4141 12.043 12.5682 12.043 12.7589V14.0048C12.2006 14.0344 12.3569 14.0644 12.5016 14.0968C12.5543 14.1086 12.6063 14.1093 12.6586 14.1141V12.7589C12.6587 12.5682 12.5211 12.4141 12.3508 12.4141Z" fill="#717171"/>
<path d="M11.4272 13.9052V12.4142C11.4272 12.2235 11.2896 12.0693 11.1194 12.0693C10.9491 12.0693 10.8115 12.2235 10.8115 12.4142V13.8376C11.0227 13.8559 11.2284 13.8777 11.4272 13.9052Z" fill="#717171"/>
<path d="M9.88792 11.7241C9.71768 11.7241 9.58008 11.8783 9.58008 12.069V13.8035C9.68288 13.8004 9.78324 13.7931 9.88792 13.7931C9.99257 13.7931 10.0929 13.8003 10.1958 13.8035V12.069C10.1958 11.8783 10.0582 11.7241 9.88792 11.7241Z" fill="#717171"/>
<path d="M8.96432 13.8375V12.4137C8.96432 12.223 8.82672 12.0688 8.65648 12.0688C8.48623 12.0688 8.34863 12.223 8.34863 12.4137V13.9051C8.5475 13.8775 8.75314 13.8554 8.96432 13.8375Z" fill="#717171"/>
<path d="M7.27453 14.0963C7.41889 14.0639 7.57557 14.0339 7.73287 14.0043V12.7584C7.73287 12.5677 7.59527 12.4136 7.42503 12.4136C7.2551 12.4136 7.11719 12.5677 7.11719 12.7584V14.1136C7.16956 14.1088 7.22191 14.1081 7.27453 14.0963Z" fill="#717171"/>
</g>
<defs>
<clipPath id="clip0_556_384">
<rect width="20" height="20" fill="white"/>
</clipPath>
</defs>
</svg>
